<?xml version="1.0" standalone="no"?>
<!DOCTYPE svg PUBLIC "-//W3C//DTD SVG 20010904//EN"
 "http://www.w3.org/TR/2001/REC-SVG-20010904/DTD/svg10.dtd">
<svg version="1.0" xmlns="http://www.w3.org/2000/svg"
 width="145.000000pt" height="145.000000pt" viewBox="0 0 145.000000 145.000000"
 preserveAspectRatio="xMidYMid meet">
<metadata>
Created by potrace 1.16, written by Peter Selinger 2001-2019
</metadata>
<g transform="translate(0.000000,145.000000) scale(0.100000,-0.100000)"
fill="#000000" stroke="none">
<path d="M0 1208 c0 -143 4 -237 9 -229 5 8 14 10 21 6 10 -6 12 -1 8 18 -4
23 -3 25 14 16 10 -5 18 -6 17 -2 -3 20 2 34 11 28 6 -3 10 -1 10 5 0 6 4 9 9
5 5 -3 13 5 17 17 5 19 65 82 109 115 31 24 96 61 135 78 58 25 90 45 70 45
-8 0 -2 7 14 15 36 19 47 19 22 0 -26 -20 -20 -19 50 6 32 11 86 23 119 27 64
8 63 7 50 70 l-5 22 -340 0 -340 0 0 -242z m674 184 c3 -5 -1 -9 -9 -9 -8 0
-12 4 -9 9 3 4 7 8 9 8 2 0 6 -4 9 -8z"/>
<path d="M785 1418 c-21 -51 -6 -61 76 -53 65 7 139 -8 139 -26 0 -4 14 -10
31 -14 139 -31 274 -128 375 -270 18 -27 36 -50 39 -53 3 -3 5 97 5 221 l0
227 -325 0 -326 0 -14 -32z"/>
<path d="M468 1123 c-74 -71 -155 -178 -164 -216 -3 -15 -12 -34 -21 -42 -16
-16 -24 -83 -11 -91 5 -3 8 -14 8 -25 0 -10 5 -19 10 -19 6 0 10 11 10 24 0
30 43 66 78 66 l26 0 -26 -27 c-52 -55 -64 -140 -27 -199 29 -47 72 -47 137 2
2 1 8 20 13 41 10 46 3 74 -16 66 -8 -3 -12 -9 -9 -14 3 -6 3 -27 -1 -48 -10
-63 -88 -92 -114 -42 -13 23 -17 103 -7 120 5 7 14 10 21 7 8 -3 19 2 26 10
18 22 34 1 20 -25 -7 -12 -9 -21 -5 -21 3 0 2 -6 -4 -13 -7 -8 -6 -18 3 -31
15 -20 40 -12 31 11 -3 8 -2 11 3 8 19 -11 22 16 5 44 -15 25 -15 32 -4 46 12
14 15 14 34 -4 l22 -20 2 25 c6 74 102 250 194 357 51 58 56 74 20 63 -21 -7
-106 -110 -142 -172 -21 -36 -34 -45 -144 -92 -66 -28 -122 -49 -125 -47 -11
12 91 156 163 230 92 95 88 117 -6 28z m43 -266 c-14 -37 -35 -42 -69 -17 -18
13 -30 25 -28 28 3 2 22 10 43 17 45 16 66 5 54 -28z"/>
<path d="M42 948 c-7 -7 -12 -8 -12 -3 0 5 -7 0 -15 -13 -12 -16 -15 -44 -14
-108 1 -48 5 -80 10 -73 4 7 5 17 3 21 -3 4 -1 8 3 8 5 0 14 9 21 21 8 12 9
18 3 14 -15 -9 -13 6 4 29 10 13 12 23 5 32 -8 8 -4 23 11 48 16 27 18 36 7
36 -8 0 -19 -5 -26 -12z"/>
<path d="M1161 877 c-1 -83 -21 -209 -42 -264 -12 -33 -11 -37 5 -24 18 15 53
163 59 246 2 34 -1 75 -8 95 -12 33 -13 30 -14 -53z"/>
<path d="M1365 903 c3 -10 11 -43 16 -73 16 -95 20 -105 28 -91 9 14 -12 130
-29 162 -13 24 -25 25 -15 2z"/>
<path d="M1430 866 c0 -8 5 -18 10 -21 6 -3 10 1 10 9 0 8 -4 18 -10 21 -5 3
-10 -1 -10 -9z"/>
<path d="M925 834 c-8 -20 -15 -40 -15 -45 0 -5 -17 -36 -37 -68 -42 -67 -83
-88 -83 -43 0 38 -16 16 -34 -47 -18 -63 -19 -72 -6 -51 5 8 17 15 27 16 10 1
29 5 43 9 23 7 23 6 -8 -30 -33 -37 -57 -83 -48 -93 3 -2 11 7 17 22 14 30 67
70 56 42 -5 -12 0 -16 18 -16 13 0 27 -4 30 -10 3 -5 1 -10 -5 -10 -6 0 -8 -4
-5 -10 3 -5 -3 -15 -15 -22 -26 -16 -26 -34 0 -48 19 -10 20 -9 14 17 -6 24
-5 26 8 15 13 -11 15 -8 12 18 -3 26 -1 30 22 30 14 0 23 -4 19 -10 -4 -6 -11
-7 -17 -4 -7 4 -8 2 -4 -5 4 -6 12 -9 17 -6 15 10 10 -33 -7 -66 -8 -17 -14
-33 -11 -35 8 -8 35 32 49 74 l15 44 13 -32 c12 -29 11 -33 -15 -60 -21 -22
-24 -30 -13 -30 9 0 21 7 28 15 7 8 19 15 27 15 14 0 -14 -30 -72 -76 -42 -34
-17 -30 36 5 59 40 88 71 91 101 2 20 -1 24 -17 22 -14 -2 -26 7 -38 28 -10
16 -15 30 -11 30 4 0 0 8 -10 19 -10 11 -22 55 -31 112 -8 52 -18 106 -24 121
-5 15 -6 40 -1 62 10 46 4 46 -15 0z m-2 -94 c4 -15 0 -20 -13 -20 -13 0 -17
5 -13 20 3 11 9 20 13 20 4 0 10 -9 13 -20z m-2 -51 c11 -5 17 -14 14 -19 -3
-5 -1 -11 5 -15 5 -3 10 -15 10 -25 0 -19 -1 -19 -35 1 -19 12 -35 25 -35 29
0 5 -3 15 -6 24 -7 19 17 22 47 5z m27 -142 c21 -16 13 -27 -19 -27 -35 0 -63
22 -48 37 11 11 46 6 67 -10z"/>
<path d="M200 761 c0 -7 7 -25 15 -41 13 -25 13 -34 -6 -87 -29 -83 -16 -200
30 -272 28 -43 19 -131 -13 -131 -20 0 -72 63 -86 104 -14 43 -23 45 -47 10
-10 -14 -26 -34 -35 -45 -10 -10 -18 -23 -18 -29 0 -5 -4 -10 -8 -10 -12 0 -7
162 5 196 6 16 16 47 23 69 14 49 39 54 87 18 22 -16 33 -20 33 -11 0 15 -106
108 -122 108 -6 0 -8 6 -5 14 9 22 -15 37 -36 22 -20 -16 -24 -58 -4 -50 32
12 36 -20 11 -105 -29 -101 -34 -243 -8 -279 8 -12 19 -22 23 -22 4 0 21 23
36 52 25 46 30 50 39 33 6 -10 26 -36 45 -57 l33 -38 70 5 c49 4 74 2 86 -7
18 -15 18 -14 -28 57 -43 68 -49 79 -76 129 -32 60 -35 132 -9 204 14 39 23
51 35 47 10 -3 17 0 17 9 0 8 -5 14 -11 13 -5 -1 -21 19 -36 45 -29 54 -40 67
-40 49z m104 -498 c19 -23 19 -23 -2 -23 -17 0 -22 6 -22 27 0 14 1 24 3 22 1
-2 11 -14 21 -26z"/>
<path d="M1427 722 c-22 -24 -21 -31 3 -25 11 3 20 14 20 24 0 24 -3 24 -23 1z"/>
<path d="M286 705 c4 -8 8 -15 10 -15 2 0 4 7 4 15 0 8 -4 15 -10 15 -5 0 -7
-7 -4 -15z"/>
<path d="M1412 683 c-16 -3 -22 -9 -18 -19 3 -9 -1 -29 -10 -46 -8 -16 -13
-36 -10 -44 3 -7 0 -16 -6 -20 -7 -5 -8 -2 -4 7 4 8 1 5 -8 -5 -8 -10 -14 -22
-11 -25 2 -4 5 -34 7 -68 1 -34 6 -59 10 -57 5 3 8 0 8 -5 0 -6 9 -11 19 -11
22 0 36 -29 21 -44 -5 -5 -10 -21 -10 -36 0 -20 -2 -22 -10 -10 -9 15 -11 4
-11 -101 0 -23 -6 -28 -47 -40 -26 -7 -49 -13 -52 -13 -3 1 -11 -6 -18 -15 -7
-9 1 9 18 40 31 57 37 74 21 65 -10 -6 -95 -150 -106 -177 -10 -27 22 -18 61
17 20 19 39 32 43 31 3 -1 28 9 53 23 26 13 50 21 54 17 5 -4 -23 -39 -61 -77
-51 -51 -64 -70 -50 -70 10 0 28 9 39 19 12 11 33 22 47 26 24 6 26 4 22 -19
-5 -23 -2 -26 21 -26 l26 0 0 95 c0 79 -3 95 -15 95 -13 0 -15 13 -13 69 1 39
6 67 11 64 5 -3 6 -16 3 -29 -4 -13 -3 -24 2 -24 4 0 8 44 8 98 1 53 -1 85 -3
70 -3 -21 -10 -28 -27 -28 -35 0 -49 24 -43 70 3 24 1 40 -5 40 -6 0 1 9 14
20 14 11 28 33 31 50 11 55 26 31 26 -41 0 -39 2 -73 5 -77 3 -3 6 34 6 82 0
48 -4 85 -9 82 -5 -3 -8 5 -8 19 0 14 4 22 10 18 6 -3 7 -1 3 5 -4 7 -8 11 -9
11 -1 -1 -12 -4 -25 -6z"/>
<path d="M540 594 c0 -3 7 -12 15 -20 16 -17 18 -14 9 10 -6 15 -24 23 -24 10z"/>
<path d="M114 545 c11 -8 24 -15 30 -15 5 0 1 7 -10 15 -10 8 -23 14 -29 14
-5 0 -1 -6 9 -14z"/>
<path d="M1106 545 c-3 -9 -6 -22 -5 -28 0 -7 5 -1 10 12 5 13 8 26 5 28 -2 2
-6 -3 -10 -12z"/>
<path d="M615 510 c42 -43 60 -54 29 -18 -25 30 -56 58 -63 58 -3 0 13 -18 34
-40z"/>
<path d="M1306 424 c-10 -25 1 -29 14 -5 6 12 7 21 1 21 -5 0 -12 -7 -15 -16z"/>
<path d="M411 361 c-14 -26 -2 -34 25 -16 13 8 31 12 41 9 10 -3 7 2 -7 10
-33 20 -47 20 -59 -3z"/>
<path d="M814 366 c23 -18 42 -21 51 -6 3 6 -3 10 -14 10 -10 0 -28 3 -38 6
-16 5 -16 4 1 -10z"/>
<path d="M1279 343 c-5 -16 -12 -34 -14 -41 -3 -8 -14 -16 -25 -19 -21 -6 -28
-23 -8 -23 6 0 -7 -13 -28 -28 -21 -16 -62 -54 -91 -85 -28 -31 -54 -57 -57
-57 -3 0 -6 13 -6 29 0 40 -16 80 -35 87 -22 9 -33 -6 -13 -17 17 -9 24 -33
33 -108 5 -46 15 -65 22 -45 11 32 133 169 189 213 15 12 41 21 60 21 39 0 43
9 13 28 -16 10 -24 11 -35 1 -12 -10 -13 -9 -7 7 3 10 13 29 21 42 10 15 11
22 3 22 -6 0 -16 -12 -22 -27z"/>
<path d="M537 330 c20 -8 22 -13 13 -37 -9 -26 -9 -27 5 -9 8 11 15 25 15 32
0 12 -23 24 -43 23 -7 0 -2 -4 10 -9z"/>
<path d="M840 290 c-50 -7 -41 -16 30 -28 l45 -8 -88 -42 c-115 -57 -275 -89
-356 -73 -53 11 -80 8 -47 -5 12 -5 16 -20 17 -63 1 -31 3 -47 6 -36 3 11 12
35 20 53 13 27 21 32 48 32 48 0 287 49 302 62 8 6 16 8 19 6 3 -3 -9 -16 -25
-28 -17 -12 -31 -26 -31 -32 0 -6 -8 -17 -17 -25 -17 -13 -16 -13 2 -4 12 5
57 41 101 79 44 38 93 73 109 77 l30 8 -30 7 c-16 4 -45 8 -63 9 -19 1 -31 5
-27 11 3 6 5 9 3 8 -2 0 -23 -4 -48 -8z"/>
<path d="M136 172 c-14 -27 -46 -139 -46 -161 0 -6 4 -11 8 -11 4 0 15 32 24
70 9 39 23 84 32 100 8 17 10 30 5 30 -4 0 -15 -13 -23 -28z"/>
<path d="M967 180 c-10 -43 -16 -180 -7 -180 13 0 28 112 20 160 -6 38 -8 41
-13 20z"/>
<path d="M366 112 c2 -115 7 -127 14 -32 4 54 2 89 -5 97 -7 9 -10 -10 -9 -65z"/>
<path d="M210 169 c0 -2 4 -18 9 -34 4 -17 5 -54 1 -82 -3 -29 -3 -53 2 -53 4
0 8 13 8 29 0 41 15 47 30 12 6 -16 19 -32 28 -36 14 -5 14 -3 -1 13 -9 10
-29 47 -43 83 -24 59 -34 79 -34 68z"/>
<path d="M835 64 c-48 -15 -112 -18 -120 -5 -8 14 -53 -4 -90 -34 l-30 -25 47
24 c41 22 51 23 83 13 26 -7 48 -8 75 0 36 9 39 8 45 -14 3 -12 13 -23 21 -23
15 0 15 2 0 25 -15 22 -15 25 1 34 29 16 11 19 -32 5z"/>
</g>
</svg>
